<svg xmlns="http://www.w3.org/2000/svg" viewBox="0 0 960 960" role="img" aria-label="Tongrong avatar">
  <path class="shadow" fill="#D9D9D9" fill-rule="evenodd" d="M369.0 646.0 L352.0 650.0 L344.0 667.0 L342.0 684.0 L373.0 676.0 Z M534.0 486.0 L530.0 487.0 L523.0 500.0 L496.0 528.0 L443.0 567.0 L416.0 577.0 L372.0 580.0 L380.0 625.0 L407.0 626.0 L429.0 619.0 L472.0 589.0 L510.0 550.0 L529.0 525.0 L533.0 524.0 Z M316.0 165.0 L306.0 164.0 L300.0 167.0 L278.0 190.0 L256.0 231.0 L249.0 264.0 L284.0 201.0 Z"/>
  <path class="hair-mid" fill="#3A3A3A" fill-rule="evenodd" d="M360.0 74.0 L329.0 75.0 L305.0 82.0 L274.0 99.0 L254.0 118.0 L235.0 150.0 L260.0 126.0 L291.0 110.0 L323.0 110.0 L333.0 116.0 L333.0 122.0 L326.0 124.0 L314.0 120.0 L300.0 120.0 L286.0 124.0 L266.0 136.0 L244.0 157.0 L220.0 186.0 L194.0 226.0 L176.0 264.0 L166.0 300.0 L165.0 354.0 L184.0 417.0 L187.0 454.0 L173.0 501.0 L135.0 573.0 L129.0 593.0 L127.0 618.0 L132.0 642.0 L160.0 689.0 L169.0 720.0 L166.0 755.0 L146.0 820.0 L144.0 852.0 L147.0 873.0 L153.0 890.0 L166.0 912.0 L184.0 930.0 L203.0 940.0 L211.0 939.0 L199.0 921.0 L189.0 896.0 L185.0 875.0 L185.0 849.0 L192.0 817.0 L213.0 766.0 L216.0 738.0 L211.0 717.0 L177.0 660.0 L170.0 634.0 L170.0 607.0 L179.0 577.0 L214.0 515.0 L219.0 476.0 L214.0 447.0 L188.0 382.0 L185.0 337.0 L199.0 295.0 L269.0 177.0 L286.0 161.0 L303.0 153.0 L320.0 152.0 L330.0 156.0 L342.0 154.0 L336.0 137.0 L338.0 115.0 L348.0 90.0 Z M384.0 70.0 L365.0 86.0 L353.0 106.0 L348.0 137.0 L355.0 151.0 L371.0 165.0 L396.0 177.0 L386.0 162.0 L379.0 143.0 L380.0 136.0 L388.0 133.0 L398.0 159.0 L416.0 179.0 L472.0 224.0 L507.0 257.0 L580.0 297.0 L600.0 311.0 L620.0 330.0 L635.0 350.0 L645.0 369.0 L652.0 392.0 L659.0 467.0 L666.0 496.0 L675.0 513.0 L708.0 557.0 L720.0 582.0 L726.0 609.0 L723.0 650.0 L744.0 658.0 L752.0 619.0 L751.0 595.0 L745.0 567.0 L730.0 533.0 L701.0 488.0 L686.0 455.0 L674.0 414.0 L656.0 330.0 L640.0 276.0 L615.0 211.0 L586.0 157.0 L570.0 135.0 L540.0 103.0 L511.0 81.0 L488.0 69.0 L452.0 59.0 L420.0 58.0 L401.0 62.0 Z M395.0 94.0 L401.0 90.0 L425.0 94.0 L450.0 104.0 L472.0 118.0 L502.0 145.0 L543.0 194.0 L600.0 248.0 L600.0 253.0 L597.0 256.0 L591.0 255.0 L571.0 238.0 L531.0 198.0 L500.0 160.0 L466.0 128.0 L432.0 109.0 L398.0 102.0 Z"/>
  <path class="hair-dark" fill="#242424" fill-rule="evenodd" d="M326.0 551.0 L325.0 568.0 L313.0 610.0 L312.0 635.0 L316.0 655.0 L327.0 685.0 L342.0 630.0 L344.0 591.0 L340.0 565.0 Z M277.0 491.0 L278.0 522.0 L276.0 535.0 L268.0 562.0 L251.0 603.0 L247.0 624.0 L247.0 642.0 L251.0 662.0 L277.0 713.0 L284.0 743.0 L284.0 761.0 L280.0 785.0 L263.0 847.0 L262.0 880.0 L265.0 895.0 L273.0 914.0 L281.0 926.0 L298.0 942.0 L297.0 949.0 L317.0 949.0 L302.0 931.0 L294.0 903.0 L298.0 860.0 L322.0 783.0 L326.0 746.0 L322.0 706.0 L304.0 656.0 L300.0 630.0 L302.0 607.0 L313.0 570.0 L315.0 549.0 L311.0 534.0 Z M594.0 391.0 L587.0 404.0 L578.0 413.0 L561.0 421.0 L551.0 477.0 L548.0 514.0 L549.0 551.0 L553.0 573.0 L559.0 588.0 L570.0 603.0 L584.0 612.0 L605.0 617.0 L588.0 597.0 L578.0 573.0 L574.0 539.0 L577.0 535.0 L582.0 535.0 L586.0 539.0 L586.0 552.0 L591.0 576.0 L605.0 601.0 L621.0 614.0 L657.0 628.0 L657.0 607.0 L652.0 585.0 L642.0 564.0 L624.0 536.0 L609.0 499.0 L604.0 471.0 L602.0 426.0 Z M532.0 286.0 L546.0 315.0 L587.0 353.0 L597.0 367.0 L605.0 385.0 L613.0 420.0 L615.0 465.0 L621.0 499.0 L630.0 523.0 L653.0 560.0 L665.0 587.0 L669.0 607.0 L669.0 632.0 L710.0 645.0 L713.0 631.0 L711.0 594.0 L699.0 565.0 L661.0 513.0 L652.0 493.0 L646.0 463.0 L642.0 405.0 L632.0 370.0 L618.0 346.0 L598.0 324.0 L571.0 305.0 Z M239.0 248.0 L204.0 309.0 L196.0 337.0 L196.0 366.0 L199.0 381.0 L220.0 429.0 L226.0 447.0 L230.0 472.0 L229.0 497.0 L223.0 520.0 L214.0 540.0 L188.0 582.0 L180.0 612.0 L180.0 629.0 L186.0 653.0 L198.0 676.0 L215.0 700.0 L226.0 729.0 L226.0 755.0 L223.0 769.0 L198.0 834.0 L196.0 874.0 L204.0 906.0 L216.0 927.0 L234.0 944.0 L233.0 949.0 L287.0 949.0 L276.0 939.0 L261.0 917.0 L253.0 896.0 L250.0 877.0 L251.0 848.0 L270.0 776.0 L272.0 742.0 L266.0 716.0 L244.0 675.0 L236.0 647.0 L238.0 607.0 L259.0 553.0 L266.0 522.0 L266.0 493.0 L263.0 474.0 L248.0 441.0 L239.0 402.0 L240.0 327.0 L235.0 295.0 L235.0 267.0 Z M360.0 73.0 L358.0 76.0 L354.0 76.0 L352.0 72.0 L346.0 72.0 L341.0 76.0 L335.0 76.0 L334.0 73.0 L334.0 81.0 L324.0 81.0 L328.0 81.0 L329.0 86.0 L324.0 89.0 L323.0 97.0 L318.0 96.0 L316.0 89.0 L313.0 96.0 L303.0 96.0 L302.0 91.0 L311.0 86.0 L308.0 84.0 L309.0 79.0 L299.0 83.0 L301.0 84.0 L301.0 92.0 L298.0 96.0 L292.0 95.0 L291.0 97.0 L294.0 99.0 L292.0 107.0 L283.0 105.0 L286.0 111.0 L299.0 106.0 L311.0 106.0 L331.0 113.0 L332.0 122.0 L325.0 123.0 L313.0 119.0 L300.0 122.0 L299.0 119.0 L290.0 121.0 L270.0 131.0 L260.0 139.0 L252.0 152.0 L246.0 153.0 L242.0 157.0 L243.0 162.0 L236.0 164.0 L225.0 180.0 L221.0 182.0 L190.0 230.0 L174.0 265.0 L165.0 298.0 L164.0 323.0 L162.0 324.0 L164.0 354.0 L184.0 421.0 L187.0 450.0 L176.0 492.0 L133.0 574.0 L127.0 597.0 L126.0 619.0 L128.0 620.0 L130.0 639.0 L137.0 654.0 L153.0 676.0 L164.0 701.0 L169.0 721.0 L169.0 736.0 L167.0 737.0 L165.0 753.0 L144.0 824.0 L143.0 855.0 L145.0 856.0 L145.0 868.0 L150.0 885.0 L168.0 915.0 L183.0 929.0 L202.0 939.0 L211.0 938.0 L200.0 925.0 L189.0 898.0 L185.0 871.0 L183.0 870.0 L183.0 851.0 L185.0 850.0 L192.0 814.0 L213.0 762.0 L215.0 734.0 L206.0 707.0 L203.0 706.0 L203.0 702.0 L192.0 689.0 L178.0 665.0 L168.0 631.0 L168.0 609.0 L170.0 608.0 L174.0 584.0 L212.0 517.0 L217.0 498.0 L216.0 493.0 L218.0 492.0 L218.0 472.0 L216.0 471.0 L217.0 464.0 L211.0 439.0 L204.0 421.0 L196.0 409.0 L183.0 364.0 L183.0 338.0 L193.0 303.0 L201.0 290.0 L201.0 286.0 L204.0 285.0 L247.0 213.0 L251.0 202.0 L270.0 175.0 L270.0 171.0 L283.0 160.0 L294.0 154.0 L306.0 152.0 L308.0 149.0 L324.0 152.0 L330.0 157.0 L341.0 152.0 L334.0 136.0 L334.0 129.0 L345.0 91.0 L342.0 89.0 L342.0 84.0 L349.0 82.0 L350.0 86.0 L351.0 77.0 L357.0 77.0 Z M383.0 69.0 L363.0 86.0 L352.0 105.0 L347.0 123.0 L349.0 126.0 L347.0 137.0 L352.0 148.0 L373.0 166.0 L398.0 177.0 L389.0 169.0 L380.0 150.0 L379.0 135.0 L388.0 133.0 L391.0 136.0 L392.0 149.0 L402.0 165.0 L429.0 190.0 L433.0 191.0 L449.0 206.0 L452.0 206.0 L459.0 214.0 L462.0 214.0 L480.0 232.0 L483.0 232.0 L496.0 248.0 L499.0 248.0 L503.0 254.0 L526.0 269.0 L568.0 289.0 L589.0 302.0 L613.0 321.0 L627.0 338.0 L643.0 366.0 L651.0 392.0 L653.0 408.0 L655.0 409.0 L654.0 417.0 L656.0 418.0 L658.0 468.0 L663.0 490.0 L676.0 515.0 L705.0 552.0 L719.0 581.0 L726.0 609.0 L726.0 627.0 L724.0 628.0 L721.0 648.0 L738.0 656.0 L744.0 656.0 L751.0 625.0 L751.0 601.0 L749.0 600.0 L750.0 592.0 L745.0 569.0 L727.0 528.0 L696.0 482.0 L684.0 451.0 L643.0 287.0 L615.0 212.0 L589.0 162.0 L570.0 135.0 L566.0 133.0 L566.0 130.0 L537.0 100.0 L518.0 85.0 L506.0 80.0 L505.0 77.0 L488.0 71.0 L487.0 68.0 L469.0 62.0 L463.0 63.0 L462.0 60.0 L427.0 56.0 L426.0 58.0 L406.0 59.0 Z M394.0 91.0 L410.0 90.0 L427.0 95.0 L432.0 93.0 L433.0 97.0 L454.0 105.0 L478.0 121.0 L513.0 156.0 L540.0 191.0 L576.0 227.0 L582.0 229.0 L586.0 236.0 L597.0 243.0 L599.0 252.0 L597.0 254.0 L588.0 253.0 L534.0 203.0 L533.0 199.0 L526.0 194.0 L493.0 152.0 L469.0 130.0 L434.0 109.0 L412.0 102.0 L395.0 100.0 Z"/>
  <path class="ink" fill="#050505" fill-rule="evenodd" d="M451.0 440.0 L448.0 437.0 L444.0 438.0 L420.0 461.0 L398.0 474.0 L385.0 478.0 L358.0 477.0 L338.0 469.0 L325.0 459.0 L321.0 460.0 L320.0 465.0 L330.0 475.0 L344.0 483.0 L363.0 488.0 L385.0 488.0 L400.0 484.0 L426.0 469.0 L447.0 451.0 L451.0 445.0 Z M334.0 383.0 L325.0 395.0 L321.0 405.0 L321.0 416.0 L325.0 424.0 L331.0 429.0 L343.0 433.0 L357.0 432.0 L365.0 429.0 L368.0 426.0 L368.0 422.0 L366.0 420.0 L343.0 422.0 L337.0 420.0 L332.0 415.0 L330.0 410.0 L331.0 403.0 L341.0 388.0 L340.0 382.0 Z M298.0 338.0 L289.0 346.0 L288.0 362.0 L291.0 369.0 L296.0 374.0 L307.0 376.0 L317.0 368.0 L318.0 354.0 L315.0 347.0 L309.0 340.0 L305.0 338.0 Z M428.0 324.0 L419.0 330.0 L416.0 339.0 L416.0 347.0 L419.0 356.0 L424.0 361.0 L428.0 363.0 L435.0 363.0 L443.0 357.0 L446.0 342.0 L442.0 331.0 L437.0 326.0 Z M403.0 279.0 L404.0 284.0 L425.0 279.0 L440.0 279.0 L460.0 288.0 L464.0 288.0 L466.0 286.0 L466.0 283.0 L458.0 276.0 L440.0 269.0 L415.0 270.0 L408.0 273.0 Z M395.0 93.0 L395.0 98.0 L398.0 100.0 L416.0 102.0 L434.0 108.0 L450.0 116.0 L469.0 129.0 L494.0 152.0 L534.0 200.0 L569.0 235.0 L592.0 254.0 L598.0 252.0 L598.0 247.0 L576.0 228.0 L540.0 192.0 L508.0 153.0 L476.0 122.0 L454.0 107.0 L430.0 96.0 L410.0 91.0 L397.0 91.0 Z M268.0 89.0 L249.0 106.0 L230.0 134.0 L217.0 161.0 L211.0 180.0 L193.0 205.0 L171.0 246.0 L157.0 287.0 L152.0 324.0 L153.0 348.0 L159.0 378.0 L173.0 418.0 L176.0 436.0 L176.0 450.0 L172.0 471.0 L163.0 495.0 L138.0 539.0 L125.0 567.0 L119.0 586.0 L116.0 605.0 L117.0 627.0 L122.0 646.0 L132.0 665.0 L145.0 683.0 L152.0 698.0 L154.0 708.0 L139.0 723.0 L128.0 738.0 L119.0 754.0 L105.0 786.0 L80.0 864.0 L59.0 950.0 L884.0 950.0 L858.0 811.0 L842.0 752.0 L828.0 723.0 L810.0 699.0 L800.0 689.0 L782.0 676.0 L753.0 662.0 L761.0 626.0 L760.0 590.0 L753.0 561.0 L739.0 529.0 L710.0 484.0 L695.0 452.0 L686.0 423.0 L669.0 342.0 L646.0 264.0 L616.0 190.0 L587.0 141.0 L561.0 109.0 L527.0 79.0 L496.0 61.0 L478.0 54.0 L447.0 47.0 L426.0 46.0 L404.0 49.0 L390.0 53.0 L372.0 64.0 L342.0 62.0 L321.0 65.0 L294.0 74.0 Z M327.0 553.0 L329.0 553.0 L341.0 565.0 L345.0 593.0 L343.0 629.0 L338.0 652.0 L328.0 683.0 L325.0 682.0 L319.0 667.0 L311.0 635.0 L312.0 611.0 Z M278.0 494.0 L281.0 495.0 L310.0 531.0 L314.0 539.0 L316.0 549.0 L315.0 565.0 L302.0 611.0 L301.0 633.0 L305.0 656.0 L317.0 686.0 L325.0 716.0 L326.0 762.0 L318.0 802.0 L303.0 844.0 L295.0 883.0 L295.0 903.0 L297.0 915.0 L303.0 931.0 L315.0 947.0 L314.0 950.0 L299.0 950.0 L297.0 942.0 L277.0 922.0 L268.0 906.0 L261.0 880.0 L261.0 856.0 L263.0 841.0 L279.0 785.0 L283.0 761.0 L283.0 743.0 L276.0 713.0 L250.0 662.0 L246.0 641.0 L246.0 624.0 L253.0 594.0 L273.0 544.0 L277.0 523.0 Z M536.0 479.0 L537.0 547.0 L542.0 573.0 L548.0 589.0 L555.0 601.0 L566.0 613.0 L582.0 622.0 L601.0 627.0 L602.0 630.0 L592.0 658.0 L583.0 676.0 L566.0 704.0 L539.0 741.0 L491.0 797.0 L452.0 836.0 L429.0 856.0 L421.0 858.0 L400.0 836.0 L370.0 792.0 L352.0 757.0 L343.0 732.0 L340.0 718.0 L338.0 699.0 L339.0 682.0 L349.0 651.0 L371.0 642.0 L375.0 672.0 L380.0 673.0 L382.0 669.0 L378.0 621.0 L369.0 578.0 L413.0 575.0 L430.0 570.0 L447.0 562.0 L472.0 545.0 L498.0 523.0 L514.0 507.0 L533.0 480.0 Z M593.0 392.0 L596.0 393.0 L601.0 412.0 L605.0 471.0 L610.0 499.0 L618.0 522.0 L643.0 564.0 L652.0 583.0 L658.0 607.0 L657.0 628.0 L638.0 623.0 L621.0 615.0 L604.0 601.0 L594.0 586.0 L590.0 576.0 L586.0 558.0 L585.0 539.0 L582.0 536.0 L577.0 536.0 L575.0 539.0 L575.0 551.0 L579.0 573.0 L589.0 597.0 L603.0 616.0 L598.0 617.0 L584.0 613.0 L570.0 604.0 L558.0 588.0 L552.0 573.0 L548.0 551.0 L547.0 515.0 L550.0 477.0 L561.0 420.0 L577.0 413.0 L586.0 404.0 Z M533.0 286.0 L569.0 303.0 L592.0 318.0 L616.0 342.0 L633.0 370.0 L642.0 400.0 L647.0 463.0 L654.0 496.0 L662.0 513.0 L700.0 565.0 L711.0 591.0 L714.0 606.0 L714.0 631.0 L710.0 646.0 L668.0 632.0 L668.0 606.0 L664.0 587.0 L652.0 560.0 L627.0 518.0 L619.0 495.0 L614.0 464.0 L612.0 420.0 L603.0 382.0 L596.0 367.0 L586.0 353.0 L561.0 332.0 L545.0 315.0 L534.0 295.0 L532.0 289.0 Z M236.0 252.0 L239.0 253.0 L236.0 267.0 L236.0 295.0 L241.0 329.0 L241.0 363.0 L239.0 380.0 L241.0 410.0 L249.0 441.0 L263.0 470.0 L267.0 494.0 L266.0 530.0 L258.0 558.0 L244.0 590.0 L239.0 607.0 L236.0 631.0 L237.0 647.0 L244.0 673.0 L268.0 719.0 L273.0 743.0 L271.0 775.0 L256.0 827.0 L252.0 848.0 L251.0 879.0 L254.0 896.0 L260.0 913.0 L269.0 929.0 L286.0 947.0 L285.0 950.0 L234.0 950.0 L233.0 944.0 L219.0 932.0 L209.0 918.0 L200.0 898.0 L195.0 874.0 L195.0 847.0 L198.0 830.0 L222.0 769.0 L225.0 756.0 L226.0 739.0 L225.0 729.0 L219.0 710.0 L211.0 695.0 L194.0 671.0 L185.0 653.0 L180.0 635.0 L179.0 615.0 L185.0 587.0 L192.0 572.0 L209.0 547.0 L218.0 530.0 L226.0 507.0 L229.0 490.0 L229.0 469.0 L225.0 447.0 L214.0 417.0 L202.0 393.0 L197.0 377.0 L195.0 365.0 L195.0 338.0 L204.0 307.0 L218.0 280.0 Z M359.0 72.0 L360.0 75.0 L353.0 82.0 L344.0 97.0 L338.0 115.0 L336.0 136.0 L341.0 152.0 L353.0 164.0 L367.0 174.0 L391.0 186.0 L408.0 192.0 L424.0 201.0 L470.0 235.0 L496.0 260.0 L519.0 275.0 L523.0 292.0 L531.0 311.0 L552.0 337.0 L554.0 347.0 L554.0 362.0 L551.0 370.0 L552.0 374.0 L557.0 376.0 L560.0 373.0 L563.0 365.0 L564.0 350.0 L567.0 349.0 L583.0 366.0 L588.0 374.0 L588.0 378.0 L581.0 393.0 L570.0 405.0 L547.0 413.0 L534.0 457.0 L525.0 476.0 L507.0 500.0 L470.0 535.0 L444.0 553.0 L416.0 565.0 L397.0 568.0 L379.0 568.0 L364.0 565.0 L351.0 559.0 L324.0 533.0 L276.0 474.0 L262.0 449.0 L251.0 414.0 L249.0 399.0 L249.0 372.0 L251.0 358.0 L251.0 331.0 L249.0 315.0 L256.0 314.0 L269.0 302.0 L279.0 299.0 L299.0 300.0 L302.0 298.0 L302.0 295.0 L300.0 292.0 L292.0 289.0 L275.0 289.0 L262.0 294.0 L255.0 300.0 L251.0 307.0 L248.0 307.0 L245.0 291.0 L245.0 272.0 L250.0 245.0 L261.0 216.0 L273.0 195.0 L290.0 174.0 L301.0 165.0 L308.0 162.0 L326.0 163.0 L329.0 161.0 L330.0 156.0 L337.0 154.0 L329.0 156.0 L324.0 153.0 L307.0 152.0 L296.0 155.0 L281.0 164.0 L265.0 182.0 L203.0 287.0 L192.0 310.0 L185.0 338.0 L185.0 365.0 L190.0 388.0 L212.0 439.0 L219.0 472.0 L218.0 498.0 L213.0 517.0 L205.0 534.0 L186.0 563.0 L177.0 581.0 L170.0 609.0 L170.0 632.0 L176.0 656.0 L189.0 681.0 L207.0 707.0 L213.0 721.0 L216.0 735.0 L216.0 751.0 L213.0 765.0 L190.0 823.0 L185.0 851.0 L185.0 871.0 L190.0 898.0 L202.0 925.0 L211.0 937.0 L210.0 940.0 L202.0 940.0 L183.0 930.0 L167.0 915.0 L157.0 901.0 L149.0 885.0 L144.0 868.0 L142.0 855.0 L143.0 824.0 L149.0 798.0 L165.0 749.0 L167.0 721.0 L165.0 708.0 L160.0 693.0 L152.0 677.0 L132.0 646.0 L127.0 632.0 L125.0 619.0 L126.0 597.0 L132.0 574.0 L149.0 538.0 L162.0 517.0 L175.0 490.0 L181.0 472.0 L185.0 450.0 L183.0 421.0 L167.0 373.0 L162.0 347.0 L161.0 325.0 L164.0 298.0 L173.0 265.0 L189.0 230.0 L217.0 186.0 L241.0 157.0 L262.0 136.0 L285.0 122.0 L299.0 118.0 L313.0 118.0 L325.0 122.0 L330.0 122.0 L332.0 119.0 L329.0 113.0 L318.0 109.0 L299.0 108.0 L279.0 114.0 L262.0 124.0 L237.0 148.0 L235.0 148.0 L234.0 145.0 L251.0 118.0 L273.0 97.0 L301.0 81.0 L334.0 72.0 Z M383.0 68.0 L397.0 61.0 L417.0 56.0 L452.0 57.0 L487.0 67.0 L510.0 79.0 L537.0 99.0 L571.0 135.0 L593.0 167.0 L616.0 212.0 L642.0 281.0 L659.0 340.0 L674.0 412.0 L685.0 451.0 L704.0 492.0 L728.0 528.0 L739.0 550.0 L746.0 569.0 L752.0 601.0 L752.0 625.0 L750.0 638.0 L744.0 657.0 L739.0 657.0 L721.0 650.0 L724.0 628.0 L724.0 609.0 L719.0 584.0 L706.0 556.0 L675.0 515.0 L662.0 490.0 L657.0 468.0 L654.0 418.0 L650.0 392.0 L642.0 366.0 L626.0 339.0 L606.0 317.0 L588.0 303.0 L570.0 292.0 L526.0 270.0 L496.0 249.0 L472.0 225.0 L423.0 186.0 L401.0 165.0 L391.0 149.0 L388.0 134.0 L381.0 134.0 L379.0 139.0 L383.0 155.0 L395.0 173.0 L394.0 176.0 L373.0 167.0 L364.0 161.0 L351.0 148.0 L346.0 137.0 L346.0 123.0 L351.0 105.0 L362.0 86.0 Z"/>
  <path class="mouth" fill="#E58C94" fill-rule="evenodd" d="M424.0 471.0 L417.0 477.0 L406.0 482.0 L405.0 484.0 L392.0 487.0 L391.0 489.0 L388.0 488.0 L387.0 490.0 L361.0 490.0 L360.0 488.0 L344.0 484.0 L350.0 491.0 L360.0 497.0 L369.0 500.0 L385.0 500.0 L392.0 498.0 L405.0 491.0 L416.0 481.0 Z M412.0 465.0 L395.0 471.0 L380.0 474.0 L353.0 474.0 L359.0 476.0 L365.0 475.0 L366.0 477.0 L384.0 477.0 L385.0 475.0 L392.0 475.0 L393.0 473.0 L397.0 473.0 L398.0 471.0 Z"/>
</svg>
