<svg width="200" height="200" viewBox="0 0 200 200" fill="none" xmlns="http://www.w3.org/2000/svg">
<path d="M160.272 23.6764C162.917 25.7622 165.998 28.7231 168.535 31.0284C158.214 41.6868 146.113 54.1519 135.309 64.2599C134.419 63.2598 133.529 62.1018 132.686 61.052C109.52 85.5928 84.5561 109.05 61.2678 133.534C58.3851 136.565 54.6778 139.144 51.6902 142.122C45.318 148.473 39.0194 154.901 32.7143 161.319C31.3814 162.771 28.5141 166.45 26.3412 164.819C26.3032 162.109 45.7237 143.793 48.8649 140.46L124.068 62.0658C127.457 58.543 128.591 55.4627 131.775 52.2779C141.299 42.7412 150.88 33.356 160.272 23.6764Z" fill="black"/>
<path d="M170.978 34.7799C172.916 35.2862 176.425 41.1396 177.542 43.0092C169.112 52.6191 155.107 66.588 145.711 75.6703L143.165 72.4996C121.35 93.1166 100.777 115.653 79.7885 137.112C73.0778 143.973 66.2716 149.793 59.4796 156.431C53.6213 162.157 47.8828 168.298 42.1383 174.166C41.0574 175.393 40.6111 176.061 39.1725 176.868C37.6043 176.938 37.962 177.162 36.9227 176.429C36.8212 174.19 39.3865 172.352 40.8773 170.84C47.3317 164.297 53.7313 157.687 60.1039 151.064C63.1827 147.865 65.6281 143.966 68.7042 140.762C83.8839 124.951 99.0271 109.084 114.453 93.5099L131.316 76.6323C133.006 74.953 138.338 69.9897 139.382 68.299L138.886 67.0532C140.041 65.4531 148.911 56.6799 150.764 54.9112C157.414 48.5614 164.273 40.843 170.978 34.7799Z" fill="black"/>
<path d="M147.366 15.1147C150.469 16.4242 154.132 19.0826 156.896 21.0729C154.889 23.4784 152.292 26.0127 150.024 28.2329C141.556 36.5178 133.379 45.3035 124.765 53.4181L121.864 50.6656C105.484 66.0947 88.0558 84.426 72.2095 100.502L24.1246 148.637C22.2098 150.716 21.0438 152.5 18.2522 152.81C18.0716 152.412 17.8007 152.042 17.7096 151.614C17.0613 148.562 42.7146 127.769 43.5922 122.911C43.7326 122.132 43.9628 121.498 44.439 120.853C45.7321 119.101 47.8575 117.455 49.4206 115.898C53.2691 112.076 57.0902 108.226 60.8844 104.351L97.7733 66.7648C103.772 60.7184 111.71 53.3843 117.174 47.3003C116.943 46.7632 116.823 46.4577 116.648 45.9001C126.096 35.8353 137.431 24.7999 147.366 15.1147Z" fill="black"/>
<path d="M179.844 46.5511C181.167 47.5936 184.59 55.1716 185.488 57.0695C181.406 60.9141 156.918 86.77 154.928 86.7486C154.359 85.784 154.286 85.5286 153.341 84.8742C149.258 85.6775 83.1929 157.761 73.439 164.143C72.4617 164.782 56.134 181.778 53.6552 184.304C52.4879 185.525 50.9423 186.842 49.3942 185.369C49.3133 181.466 75.6948 160.077 77.6101 153.55C77.525 153.841 90.5681 140.266 91.5651 139.228L144.077 85.5808C147.833 81.6766 149.301 77.9839 152.245 75.0011C161.556 65.5547 170.782 56.2551 179.844 46.5511Z" fill="black"/>
<path d="M131.992 8.73265C136.489 9.66257 139.211 11.0654 143.323 12.9962C134.196 22.9031 122.75 33.8456 113.092 43.5009L110.276 40.8108C79.1187 71.5037 48.1642 102.403 17.4156 133.507C15.8572 135.133 13.5401 138.657 11.4541 137.42C11.1674 136.762 10.6536 135.987 11.1337 135.444C17.8559 127.84 25.7861 120.953 32.6213 113.425C32.8922 113.127 33.119 111.02 33.1143 111.025C51.3431 91.1048 72.7683 70.9337 91.603 51.556C96.6735 46.3424 103.747 40.0242 105.065 37.9175C104.56 37.3539 104.543 37.4022 104.346 36.679C113.618 27.4179 122.831 18.102 131.992 8.73265Z" fill="black"/>
<path d="M186.87 61.37C188.808 62.9269 190.67 70.9439 191.187 73.4243C182.202 81.3036 172.946 91.8729 163.772 100.214C163.126 99.0966 162.797 98.1761 161.671 97.6382C160.828 97.9078 142.373 116.828 139.921 119.29L68.9404 190.355C67.8159 191.594 66.4248 192.152 65.0547 191.037C65.2134 187.494 79.6558 175.613 82.6584 171.699C91.2052 160.56 101.616 150.696 111.462 140.671L137.73 113.792C143.682 107.819 152.347 99.3285 158.329 93.0138C158.864 92.4498 158.295 91.3149 158.038 90.5018C165.36 82.0919 178.654 69.7085 186.87 61.37Z" fill="black"/>
<path d="M114.838 4.85233C118.167 4.685 124.568 6.43657 127.979 7.24838C126.413 8.66059 124.808 10.22 123.357 11.7572C116.015 19.5628 107.778 26.8832 100.623 34.8378C99.6476 34.1459 98.5778 33.2604 97.6236 32.5103C93.396 35.9732 88.073 41.4979 84.0893 45.4619L63.0137 66.4983C47.0715 82.4234 29.2154 99.3292 13.8475 115.369C12.3173 116.975 9.34776 120.5 7.34948 121.077L6.7945 120.568C6.74444 120.075 6.69735 119.584 6.68836 119.088C6.64729 116.867 17.518 106.968 19.7071 104.653C23.3336 100.82 26.0383 96.3015 29.6159 92.4411C38.5354 82.8162 48.196 73.7092 57.4947 64.4468L80.7089 41.3096C83.9652 38.0778 87.4654 34.7638 90.7431 31.5286C91.6802 30.6008 91.4405 29.6666 91.4106 28.4555C97.093 21.685 108.158 11.2809 114.838 4.85233Z" fill="black"/>
<path d="M192.078 77.6711C193.375 79.222 194.17 88.3975 194.483 90.9163C187.53 99.123 178.638 106.54 171.458 114.629C170.97 113.493 170.546 112.049 169.584 111.378C166.644 113.993 164.081 116.673 161.342 119.492C143.803 137.547 125.861 155.227 108.202 173.169C104.941 176.482 101.107 179.269 97.8424 182.553C93.8202 186.603 89.9349 190.724 85.8271 194.702C85.3692 194.77 82.3988 194.424 81.736 194.358C87.2391 188.164 93.6747 182.844 98.7453 176.25C100.684 173.73 102.904 171.119 105.117 168.852L143.306 130.133C146.537 126.887 165.493 108.635 166.939 105.736L165.912 104.594C165.921 104.361 165.934 104.129 165.942 103.897C173.726 95.803 184.744 85.7284 192.078 77.6711Z" fill="black"/>
<path d="M94.9452 4.29013C99.6093 4.14163 104.714 4.21224 109.417 4.18228C102.023 11.8904 94.543 19.5176 86.9821 27.0627L83.9012 24.9123C76.7352 30.796 64.1906 44.0755 57.0837 51.1362C42.4107 65.7132 27.0389 80.4956 12.5563 95.2027C10.2097 97.5594 7.84306 99.8964 5.45625 102.213C5.63511 100.796 5.63938 99.3529 5.68088 97.9227C8.89909 94.4897 16.7065 88.0458 18.1656 83.9953C19.944 79.0581 28.8562 71.7322 32.8895 67.7014C38.4441 62.1501 76.5243 25.3894 76.9171 23.3871C77.8041 18.868 90.9615 7.41753 94.9452 4.29013Z" fill="black"/>
<path d="M194.889 96.4947C196.219 98.9605 194.867 109.614 194.307 112.671C190.4 117.066 181.911 125.732 177.546 129.453C175.993 129.344 177.525 128.759 175.796 127.122C174.123 127.572 163.712 138.651 161.359 141.012C142.497 159.93 125.445 178.343 105.009 195.637C104.256 195.554 103.507 195.459 102.758 195.352L102.429 194.675C103.135 192.284 107.046 189.503 108.826 187.551C111.483 184.636 113.905 181.514 116.609 178.641C128.787 165.713 141.701 153.324 154.187 140.672C160.199 134.579 167.08 128.658 172.625 122.171C173.554 121.084 173.417 120.372 173.447 119.037C173.502 116.759 191.906 99.5194 194.889 96.4947Z" fill="black"/>
<path d="M86.896 5.08688L87.3282 5.13138C87.3239 5.99112 73.9975 18.9069 72.2774 20.6584L68.7216 18.633C49.7859 37.6473 28.9157 58.6704 9.55762 77.1426C9.3364 77.3981 9.02403 77.5312 8.70525 77.7199C6.76346 72.1968 18.6008 61.1238 22.0826 57.5963L45.257 34.3714C50.1166 29.5417 58.0293 22.5611 61.378 17.1189C67.437 7.27195 75.9872 7.20476 86.896 5.08688Z" fill="black"/>
<path d="M193.143 119.584L193.434 119.873C193.874 122.59 190.806 132.809 189.796 135.734C188.838 138.518 183.575 144.163 181.277 145.257L180.554 144.145C178.598 144.083 169.861 153.888 167.73 156.055L144.824 179.181C138.504 185.564 134.405 191.122 125.783 194.343C124.949 194.424 124.23 194.436 123.395 194.462L123.07 194.003C135.963 179.469 152.133 165.201 165.488 150.882C167.91 148.282 177.743 138.768 179.189 136.547L178.637 135.301C178.962 133.411 190.695 122.189 193.143 119.584Z" fill="black"/>
<path d="M48.4747 17.7935L48.8324 18.0533C47.2372 20.0458 41.8273 24.9975 39.6703 27.1047C33.1538 33.3933 26.7316 39.7791 20.4055 46.259L20.2279 46.176L20.1548 45.5773C28.7478 32.0111 34.5261 25.7575 48.4747 17.7935Z" fill="black"/>
<path d="M181.56 154.786C181.508 155.902 179.844 158.299 179.172 159.376C172.159 170.588 163.832 178.657 152.625 185.623L152.604 185.097C162.112 175.61 172.266 163.654 181.56 154.786Z" fill="black"/>
<path d="M185.433 146.119C185.826 148.301 183.794 151.339 182.69 153.252C181.586 149.322 182.775 148.994 185.433 146.119Z" fill="black"/>
<path d="M58.2167 12.6661L58.6211 12.8728C57.7717 14.4181 55.6258 16.0409 54.0477 16.7496L52.637 16.0225C53.3717 14.7716 56.5839 13.5156 58.2167 12.6661Z" fill="black"/>
</svg>
