<svg xmlns="http://www.w3.org/2000/svg" viewBox="767.4 -40 793.4 780" fill="#101114">
<g transform="translate(767.4 0)"><path fill-rule="nonzero" d="M0 0L400 0L400 104L0 104Z M148 0L252 0L252 700L148 700Z"/></g>
<g transform="translate(1228.8 0)"><path fill-rule="nonzero" d="M0 0L104 0L104 700L0 700Z M0 0L172 0L172.3 0L182.4 4.3L192.2 9.2L201.8 14.7L211 20.7L220 27.3L228.5 34.3L236.7 41.9L244.4 50L251.7 58.4L258.6 67.3L264.9 76.6L270.8 86.3L276.1 96.2L280.8 106.5L285 117L288.7 127.8L291.7 138.8L294.2 149.9L296 161.1L297.3 172.5L297.9 183.9L297.9 195.3L297.3 206.7L296.1 218L294.3 229.3L291.9 240.4L288.9 251.4L285.3 262.2L281.2 272.7L276.4 283L271.2 293L265.4 302.7L259.1 312L252.3 320.9L245 329.4L237.3 337.5L229.1 345.1L220.6 352.2L211.7 358.8L202.5 364.9L0 365Z M104 274L111.1 273.8L118.1 273.1L125 271.9L131.9 270.3L138.6 268.2L145.1 265.7L151.4 262.7L157.5 259.4L163.3 255.6L168.8 251.5L174 247.1L178.8 242.2L183.3 237.1L187.3 231.7L190.9 226.1L194.1 220.2L196.8 214.2L199 207.9L200.7 201.6L202 195.1L202.7 188.6L203 182L202.7 175.4L202 168.9L200.7 162.4L199 156.1L196.8 149.8L194.1 143.8L190.9 137.9L187.3 132.3L183.3 126.9L178.8 121.8L174 116.9L168.8 112.5L163.3 108.4L157.5 104.6L151.4 101.3L145.1 98.3L138.6 95.8L131.9 93.7L125 92.1L118.1 90.9L111.1 90.2L104 90Z M118 340L216 340L321 700L223 700Z"/></g>
</svg>