<svg xmlns="http://www.w3.org/2000/svg" viewBox="0 -40 1560.8 780" fill="#101114">
<g transform="translate(16 0)"><path fill-rule="nonzero" d="M625.8 569.2L608.3 590.2L589.3 609.8L568.8 627.9L547 644.3L524 658.9L500 671.7L475.1 682.5L449.4 691.3L423.1 698.1L396.4 702.9L369.5 705.4L342.4 705.9L315.3 704.2L288.5 700.5L262 694.6L236.1 686.6L210.8 676.6L186.4 664.7L162.9 650.9L140.6 635.2L119.5 617.9L99.8 599L81.6 578.5L65.1 556.7L50.2 533.7L37.1 509.5L25.9 484.4L16.7 458.5L9.4 432L4.2 404.9L1 377.5L0 350L1 322.5L4.2 295.1L9.4 268L16.7 241.5L25.9 215.6L37.1 190.5L50.2 166.3L65.1 143.3L81.6 121.5L99.8 101L119.5 82.1L140.6 64.8L162.9 49.1L186.4 35.3L210.8 23.4L236.1 13.4L262 5.4L288.5 -0.5L315.3 -4.2L342.4 -5.9L369.5 -5.4L396.4 -2.9L423.1 1.9L449.4 8.7L475.1 17.5L500 28.3L524 41.1L547 55.7L568.8 72.1L589.3 90.2L608.3 109.8L625.8 130.8L543.9 194.9L531.6 180L518.2 166.1L503.8 153.3L488.5 141.7L472.3 131.4L455.4 122.3L437.9 114.6L419.9 108.4L401.4 103.6L382.6 100.2L363.7 98.4L344.6 98.1L325.6 99.2L306.8 101.9L288.1 106.1L269.9 111.7L252.2 118.8L235 127.2L218.5 137L202.8 148.1L188 160.4L174.2 173.8L161.4 188.2L149.7 203.7L139.3 220L130.1 237.1L122.2 254.8L115.7 273.2L110.6 292L106.9 311.1L104.7 330.5L104 350L104.7 369.5L106.9 388.9L110.6 408L115.7 426.8L122.2 445.2L130.1 462.9L139.3 480L149.7 496.3L161.4 511.8L174.2 526.2L188 539.6L202.8 551.9L218.5 563L235 572.8L252.2 581.2L269.9 588.3L288.1 593.9L306.8 598.1L325.6 600.8L344.6 601.9L363.7 601.6L382.6 599.8L401.4 596.4L419.9 591.6L437.9 585.4L455.4 577.7L472.3 568.6L488.5 558.3L503.8 546.7L518.2 533.9L531.6 520L543.9 505.1Z"/></g>
<g transform="translate(767.4 0)"><path fill-rule="nonzero" d="M0 0L400 0L400 104L0 104Z M148 0L252 0L252 700L148 700Z"/></g>
<g transform="translate(1228.8 0)"><path fill-rule="nonzero" d="M0 0L104 0L104 700L0 700Z M0 0L172 0L172.3 0L182.4 4.3L192.2 9.2L201.8 14.7L211 20.7L220 27.3L228.5 34.3L236.7 41.9L244.4 50L251.7 58.4L258.6 67.3L264.9 76.6L270.8 86.3L276.1 96.2L280.8 106.5L285 117L288.7 127.8L291.7 138.8L294.2 149.9L296 161.1L297.3 172.5L297.9 183.9L297.9 195.3L297.3 206.7L296.1 218L294.3 229.3L291.9 240.4L288.9 251.4L285.3 262.2L281.2 272.7L276.4 283L271.2 293L265.4 302.7L259.1 312L252.3 320.9L245 329.4L237.3 337.5L229.1 345.1L220.6 352.2L211.7 358.8L202.5 364.9L0 365Z M104 274L111.1 273.8L118.1 273.1L125 271.9L131.9 270.3L138.6 268.2L145.1 265.7L151.4 262.7L157.5 259.4L163.3 255.6L168.8 251.5L174 247.1L178.8 242.2L183.3 237.1L187.3 231.7L190.9 226.1L194.1 220.2L196.8 214.2L199 207.9L200.7 201.6L202 195.1L202.7 188.6L203 182L202.7 175.4L202 168.9L200.7 162.4L199 156.1L196.8 149.8L194.1 143.8L190.9 137.9L187.3 132.3L183.3 126.9L178.8 121.8L174 116.9L168.8 112.5L163.3 108.4L157.5 104.6L151.4 101.3L145.1 98.3L138.6 95.8L131.9 93.7L125 92.1L118.1 90.9L111.1 90.2L104 90Z M118 340L216 340L321 700L223 700Z"/></g>
</svg>