<svg xmlns="http://www.w3.org/2000/svg" viewBox="94.91 251.19 1801.08 320.77" width="1801.08" height="320.77" role="img" aria-label="LENSLAB">
<path d="M468.267 271.582C500.503 266.383 556.147 274.209 581.966 293.472C599.942 306.881 607.215 331.243 591.591 349.47C571.249 373.2 536.03 380.142 506.452 383.375C522.857 386.322 538.312 389.291 552.435 398.904C583.551 420.082 566.392 447.011 538.4 458.725C520.958 466.025 508.281 467.665 489.78 470.409C516.777 474.486 543.019 471.881 566.382 489.62C577.615 498.149 584.333 513.47 573.853 525.235C556.815 544.362 525.26 548.54 501.177 551.303C461.599 555.246 393.407 551.627 359.822 528.331C354.017 524.348 347.489 517.335 346.915 509.975C344.575 479.989 385.928 473.318 406.571 470.57C379.743 466.81 319.742 448.219 351.019 407.132C364.169 389.858 402.121 383.608 423.935 382.602C391.806 376.652 332.489 354.312 366.637 309.262C386.422 283.161 436.094 274.361 468.267 271.582Z" fill="#141414"/>
<path d="M1499.9 266.655C1510.87 265.3 1522.15 267.06 1531.58 273.064C1551.73 285.884 1550.74 309.762 1560.43 324.484C1578.91 350.38 1607.29 350.779 1614.16 386.512C1621.37 423.999 1572.55 431.876 1598.21 468.148C1610.28 485.758 1623.95 508.254 1609.96 529.065C1590.77 557.593 1527.26 566.96 1510.61 531.068C1505.84 520.792 1517.12 506.265 1504.69 499.166C1494.28 493.221 1482.06 492.799 1470.59 495.135C1449.06 501.178 1443.39 509.484 1431.76 526.52C1422.57 540.136 1408.26 549.46 1392.09 552.372C1373.58 555.775 1347.05 549.812 1343.07 527.587C1338.37 501.573 1361.53 494.032 1373.62 477.902C1389.25 457.061 1356.62 441.668 1368.93 415.669C1379.41 393.536 1395.8 393.037 1409.37 374.971C1416.16 365.937 1410.07 353.838 1408.45 344.322C1403.15 303.754 1467.32 272.514 1499.9 266.655ZM1484.94 432.526C1493.65 431.875 1497.27 432.663 1505.61 435.334C1505.3 430.993 1504.9 427.925 1505.54 423.539C1506.86 414.571 1519.76 404.786 1518.56 397.148C1514.96 394.303 1507.16 394.352 1503.79 391.987C1495.25 385.995 1500.61 379.55 1490.11 378.965C1483.25 389.549 1477.34 392.09 1465.6 396.145C1449.27 401.781 1461.78 407.517 1465 417.499C1466.49 422.189 1460.07 432.587 1465.75 435.454C1471.96 438.588 1478.86 433.756 1484.94 432.526Z" fill="#141414"/>
<path d="M1003.92 265.721C1004.4 265.677 1004.88 265.653 1005.35 265.651C1015.68 265.557 1020.69 269.25 1027.42 276.101C1049.66 256.195 1083.77 267.61 1083.76 297.116C1087.09 301.006 1098.78 298.466 1104.26 301.581C1136.19 319.746 1113.71 366.678 1077.8 345.161C1060.46 369.057 1033.44 367.909 1017.74 342.56C1005.64 348.496 1000.21 348.369 988.2 342.582C983.215 346.055 976.271 351.492 976.663 358.309C983.243 369.255 996.29 352.91 1007.85 378.572C1035.42 364.576 1031.06 385.927 1047.73 384.712C1063.31 383.575 1072.14 392.554 1071.23 407.121C1075.39 409.628 1082.64 405.454 1093.21 412.398C1099.25 416.338 1103.41 422.574 1104.73 429.658C1106.74 439.914 1103.54 446.534 1098.07 454.462C1115.94 468.485 1114.18 489.29 1095.17 501.684C1090.42 504.779 1086.01 505.418 1080.54 506.549C1081.49 513.369 1079.86 522.31 1076.55 527.436C1071.53 541.98 1046.34 537.835 1042.23 541.023C1030.42 550.18 1027.77 562.932 1004.9 548.597C996.051 556.486 992.011 558.59 980.159 559.635C968.354 557.916 962.184 555.673 954.49 546.211C942.505 554.546 930.668 559.005 916.678 554.82C901.914 550.403 896.685 539.658 896.763 525.815C896.773 523.965 891.156 524.717 889.199 524.723C876.523 524.757 863.648 517.925 859.945 505.129C858.207 499.21 858.915 492.841 861.912 487.448C870.284 472.287 887.35 470.541 901.409 478.6C910.056 460.17 928.375 452.037 947.163 463.354C952.458 466.544 954.308 469.963 957.771 475.056C963.531 478.462 967.361 469.535 982.116 481.697C990.33 475.106 999.461 474.467 1002.22 470.019C1004.36 444.378 978.468 467.329 966.978 438.74C933.491 456.038 928.835 424.556 926.304 424.847C896.496 428.274 879.919 410.015 892.883 383.32C861.427 371.554 865.392 339.333 895.265 327.314C889.844 303.692 902.354 287.663 927 289.093C936.305 267.106 941.206 278.311 950.292 275.227C967.427 269.413 968.277 258.768 989.108 271.073C994.781 267.121 997.359 266.669 1003.92 265.721Z" fill="#141414"/>
<path d="M100.38 273.101L226.453 273.035L226.486 396.399L312.242 396.334L312.336 549.502C264.685 548.765 210.659 548.643 163.143 549.652C162.827 524.339 163.282 498.891 162.947 473.473C143.361 472.649 120.324 473.141 100.646 473.472C99.9117 452.77 100.481 428.523 100.483 407.616L100.38 273.101Z" fill="#141414"/>
<path d="M775.448 273.035L817.571 273.026L817.667 446.923L832.934 446.975L832.971 506.558L832.922 549.842C816.683 548.657 787.319 549.394 770.684 549.936L770.484 533.791C763.362 533.635 756.239 533.586 749.117 533.644L748.967 513.56L732.333 513.25C731.823 503.679 732.115 491.303 732.076 481.523C726.93 481.866 720.425 481.838 715.163 481.966C715.164 470.393 714.988 458.82 714.634 447.251L700.101 447.411C700.239 438.18 700.174 428.947 699.905 419.72C698.627 418.744 697.118 417.634 697.092 415.847C696.943 405.637 697.155 395.426 697.076 385.216C697.008 376.415 697.184 367.589 696.233 358.826L679.019 358.911C678.252 378.118 678.725 398.946 678.817 418.29C673.702 418.219 668.112 418.587 662.957 418.825C661.838 460.804 662.906 507.404 662.81 549.908C651.161 548.873 632.537 549.497 620.751 549.679C620.006 534.6 620.421 516.463 620.407 501.211L620.483 418.097L636.745 417.683C637.994 371.407 636.909 319.816 636.754 273.068L678.801 273.067C678.643 281.444 678.884 290.325 678.968 298.741C687.291 298.81 695.615 298.778 703.937 298.645L704.016 328.529L719.4 328.563C719.369 338.27 719.564 348.162 719.666 357.885L739.36 357.591C739.122 377.708 739.072 397.826 739.211 417.944L755.256 418.1C755.17 420.349 755.123 422.599 755.115 424.851C755.118 430.186 755.449 431.361 759.377 435.233L759.636 435.486C760.88 446.815 760.318 468.533 760.359 480.371L775.725 480.435C775.51 491.191 775.592 501.95 775.97 512.701L790.687 512.725C790.843 490.98 790.862 469.234 790.744 447.488C785.907 447.338 780.444 447.51 775.552 447.567L775.448 273.035Z" fill="#141414"/>
<path d="M1272.89 265.809C1274.77 268.79 1281.17 292.219 1282.61 296.999C1293.26 332.092 1303.68 367.253 1313.87 402.482C1289.21 409.496 1264.48 416.256 1239.67 422.764C1238.17 437.651 1239.03 466.363 1239.13 482.111L1317.25 482.089C1316.95 504.637 1317.33 527.194 1316.98 549.774C1294.28 548.135 1253.81 549.538 1229.79 549.594C1201.62 549.494 1173.46 549.543 1145.29 549.742C1144.36 506.934 1145.2 461.032 1145.21 417.98L1202.16 418.007C1190.1 377.284 1178.41 336.456 1167.08 295.528C1182.22 290.254 1203.28 285.1 1219.23 280.506C1235.25 275.892 1256.93 269.211 1272.89 265.809Z" fill="#141414"/>
<path d="M1784.62 514.211C1788.02 513.678 1791.88 516.029 1793.39 518.996C1797.18 526.444 1791.9 530.411 1786.24 533.616C1787.36 534.004 1788.46 534.387 1789.5 534.914C1796.28 538.352 1795.96 547.721 1789.21 550.988C1788.31 551.423 1787.22 551.699 1786.27 551.974C1785.02 552.086 1782.43 551.299 1781.31 550.646C1779.3 549.476 1777.85 547.546 1777.28 545.291C1776.7 542.939 1777.07 540.448 1778.33 538.371C1780.16 535.301 1782.43 534.526 1785.59 533.728C1785.57 533.344 1785.51 533.381 1784.94 533.111C1781.67 531.559 1779.14 530.748 1777.62 527.068C1776.71 524.831 1776.74 522.326 1777.7 520.113C1779.1 516.846 1781.54 515.423 1784.62 514.211ZM1778.13 277.564C1781.45 270.351 1792.7 272.14 1794.36 279.756C1795.89 285.506 1792.39 289.094 1787.71 291.622C1793.04 294.471 1791.86 294.688 1795.11 298.925C1797.09 294.523 1798.23 293.198 1802.82 291.161C1800.23 289.694 1798.07 288.235 1797.32 285.186C1795.81 279.002 1799.11 275.863 1804.46 274.257C1807.43 274.896 1809.82 275.524 1811.64 278.311C1812.81 280.102 1813.21 282.287 1812.75 284.375C1812.19 286.993 1810.46 289.026 1808.23 290.413C1807.81 290.67 1807.39 290.917 1806.96 291.153C1808.31 291.959 1809.61 292.701 1810.87 293.668C1811.91 294.472 1813.27 296.788 1814.35 297.001C1815.16 295.719 1815.85 294.619 1816.91 293.516C1820.39 289.919 1825 288.998 1829.27 291.847C1834.66 295.447 1835.54 303.79 1830.7 308.203C1829.73 309.086 1828.8 309.81 1827.71 310.539C1829.26 311.553 1831.24 312.941 1832.14 314.6C1833.79 315.393 1834.17 312.659 1835.27 311.66C1844.27 303.509 1854.82 312.583 1851.57 323.166C1850.8 325.662 1848.39 327.531 1846.39 329.144C1848.93 331.18 1849.31 331.709 1851.06 334.485C1855.08 324.012 1867.24 326.207 1869.31 336.647C1870.29 341.557 1865.96 345.967 1861.95 348.304C1868.68 352.393 1867.4 356.716 1861.24 360.558C1857.11 360.641 1853.27 359.681 1851.46 355.448L1850.9 355.152C1850.1 358.358 1848.97 359.252 1846.6 361.43C1847.69 362.258 1848.75 363.011 1849.59 364.107C1854.03 369.873 1851.63 380.849 1843.66 381.901C1841.05 382.27 1838.4 381.554 1836.33 379.919C1834.66 378.624 1832.61 375.389 1832.17 375.263C1831.53 376.041 1831.62 376.412 1831.26 376.935C1830.53 378.005 1828.74 379.601 1827.71 380.392C1835.17 385.842 1835.56 392.976 1827.64 398.21C1830.89 400.822 1830.61 400.664 1833.17 403.975C1833.54 403.843 1834.42 402.557 1834.87 402.071C1837.7 398.973 1841.99 397.672 1845.92 399.478C1848.27 400.533 1850.09 402.487 1850.99 404.901C1852.94 410.267 1849.78 413.813 1845.53 416.481C1848.14 418.064 1849.79 418.818 1851.38 421.449L1851.92 421.676C1854.7 418.932 1857.03 415.846 1861.36 415.938C1869.15 416.105 1873.99 426.034 1869.65 432.403C1868.65 433.876 1867.25 435.046 1865.83 436.105C1868.42 437.703 1868.46 438.1 1870.39 440.596C1870.66 440.939 1870.96 441.53 1871.21 441.364C1874.47 439.221 1874.09 436.912 1878.83 436.683C1880.42 436.613 1882.01 436.994 1883.4 437.782C1885.62 439.059 1887.25 441.171 1887.91 443.648C1889.22 448.613 1886.07 451.918 1882.19 454.392C1885.48 456.02 1888.13 457.531 1889.4 461.313C1890.26 463.916 1890.06 466.754 1888.83 469.204C1887.39 472.029 1885 473.701 1882.23 475.028C1890.99 481.313 1890.19 490.511 1879.68 493.816C1874.93 492.801 1873.68 491.899 1870.7 488.114C1869.28 491.084 1868.1 492.124 1865.54 494.139C1868.59 496.571 1870.99 498.951 1871.42 503.103C1871.68 505.818 1870.84 508.526 1869.1 510.621C1863.94 516.916 1855.99 515.131 1852.08 508.443C1850.36 510.788 1848.92 512.236 1846.46 513.861C1849.72 516.071 1851.74 517.834 1852.52 522.054C1853.01 524.664 1852.41 527.359 1850.87 529.519C1845.45 537.249 1837.44 533.979 1833.14 527.044C1829.37 534.064 1822.37 536.358 1816.68 530.366C1815.96 529.611 1814.61 526.847 1814.01 526.719C1811.32 530.404 1811.25 531.219 1806.77 533.514C1811.67 535.794 1815.93 540.266 1813.24 546.091C1809.69 553.793 1799.06 553.744 1796.45 545.142C1795.76 542.857 1796.03 540.394 1797.18 538.304C1798.53 535.849 1800.54 534.532 1803.08 533.552C1798.34 530.734 1796.77 528.839 1795.41 523.374L1795.36 523.188C1797.33 518.176 1799.42 514.696 1805.26 513.736C1807.71 514.716 1810.52 515.749 1812.05 517.989C1812.58 518.754 1813.55 520.194 1814.23 520.691C1815.22 520.081 1815.9 516.228 1820.51 514.403C1821.02 514.203 1821.54 514.016 1822.07 513.844C1818.04 511.241 1815.88 509.219 1814.19 504.539C1812.33 509.699 1810.4 511.549 1805.29 513.347C1799.83 511.912 1797.36 509.358 1795.58 504.028C1797.02 497.779 1799.09 496.246 1804.96 493.956C1809.99 495.971 1811.66 497.302 1813.88 502.552C1814.03 502.907 1814.17 503.264 1814.3 503.629C1815.35 498.876 1817.34 495.849 1822.14 494.271C1819.15 492.581 1816.12 490.861 1814.8 487.474C1814.64 487.064 1814.37 485.944 1814.04 485.799C1812.85 490.041 1808.72 492.811 1804.63 493.853C1801.18 492.691 1798.93 491.539 1797.26 488.262C1793.57 481.049 1802.33 470.847 1809.54 476.821C1812.03 478.886 1812.41 481.209 1814.19 483.432C1815.12 479.262 1817.15 476.317 1821.11 474.512C1820.03 473.872 1819.16 473.339 1818.19 472.536C1811.72 467.169 1813.02 458.542 1820.91 455.525C1817.21 453.51 1816.2 451.994 1814.08 448.332C1813.28 448.712 1812.9 449.935 1812.23 450.718C1810.29 452.972 1807.74 453.982 1804.97 454.738C1802.01 454.037 1799.59 452.85 1797.92 450.112C1796.75 448.224 1796.39 445.942 1796.93 443.787C1797.83 440.221 1800.37 438.438 1803.31 436.65C1797.27 433.696 1797.71 432.53 1794.89 427.405C1793.73 430.931 1792.73 433.442 1789.24 435.32C1784.99 437.604 1779.71 434.709 1777.88 430.645C1776.88 428.443 1776.83 425.925 1777.74 423.685C1779.24 419.951 1782.45 418.29 1786.18 417.47C1791.51 419.376 1792.84 421.13 1795 426.197C1796.93 421.813 1798.67 419.369 1803.36 417.564C1803.52 417.5 1803.69 417.439 1803.86 417.381C1798.85 414.864 1797.43 413.734 1795.07 408.727C1792.93 412.928 1791.29 415.007 1786.72 416.945C1783.57 416.497 1780.54 415.317 1778.57 412.682C1777.32 411.013 1776.81 408.911 1777.14 406.854C1777.8 402.746 1781.09 399.911 1784.73 398.345C1781.75 397.05 1778.7 395.774 1777.56 392.487C1775.48 386.478 1779.96 381.728 1785.15 379.916C1785.46 379.805 1785.79 379.703 1786.11 379.608C1791.36 382.304 1792.47 383.948 1794.93 389.234C1796.59 384.993 1797.93 382.336 1802.31 380.239C1800.86 379.426 1799.57 378.805 1798.38 377.62C1792.51 371.777 1796.23 363.874 1803.4 361.711C1802.07 360.972 1800.84 360.338 1799.68 359.331C1793.99 354.35 1795.26 347.688 1801.91 344.554C1798.48 342.622 1797.04 341.458 1795.71 337.686C1796.71 333.285 1797.77 331.558 1801.57 329.007C1793.7 323.715 1792.93 315.067 1801.9 310.573C1798.36 308.449 1796.66 305.87 1795.16 302.112C1792.85 307.013 1791.81 308.127 1786.9 310.594C1791.77 312.791 1793.44 314.496 1794.94 319.612C1793.8 324.176 1793.14 325.848 1788.83 328.438C1788.19 328.82 1787.55 329.195 1786.9 329.561C1791.28 331.581 1792.53 333.241 1793.28 337.91C1790.42 345.477 1781.76 346.359 1778.58 338.655C1778.47 338.388 1778.37 338.116 1778.29 337.841C1779.17 333.821 1781.31 331.239 1785.12 329.576C1781.72 327.88 1778.66 326.098 1777.46 322.24C1775.71 316.659 1779.73 312.245 1784.77 310.834L1784.98 310.777C1783.43 309.904 1782.11 309.228 1780.78 308.047C1774.16 302.198 1776.31 294.047 1784.56 291.67C1778.74 288.699 1774.74 284.917 1778.13 277.564ZM1764.82 534.224C1766.79 534.066 1767.69 534.227 1769.56 535.129C1771.77 536.189 1773.45 538.114 1774.2 540.451C1775.98 545.954 1772.29 550.006 1767.27 551.616C1759.02 552.139 1754.39 541.869 1761.06 536.519C1762.35 535.484 1763.36 534.981 1764.82 534.224ZM1745.84 534.959C1751.62 534.689 1753.46 538.574 1754.87 543.321C1753.43 547.846 1752.17 549.342 1747.8 551.109C1746.33 551.382 1744.89 551.059 1743.54 550.434C1739.56 548.576 1738.23 543.049 1740.1 539.259C1741.32 536.789 1743.35 535.779 1745.84 534.959ZM1726.66 535.724C1734.88 534.626 1738.98 547.416 1728.27 550.509C1727.31 550.816 1725.33 550.239 1724.49 549.759C1721.09 547.824 1719.53 542.819 1721.52 539.374C1722.85 537.084 1724.25 536.419 1726.66 535.724ZM1707.3 536.217C1709.69 536.132 1712.77 537.444 1713.91 539.576C1716.78 544.976 1713.13 547.879 1709.08 550.236C1708.12 550.409 1706.74 549.881 1705.84 549.521C1702.44 548.169 1700.66 543.796 1702.18 540.454C1703.33 537.894 1704.87 537.184 1707.3 536.217ZM1687.39 536.956C1691.64 536.941 1693.33 539.194 1694.81 542.754C1693.97 546.816 1692.74 548.071 1689.04 549.746C1683.32 550.706 1677.65 540.756 1687.39 536.956ZM1667.18 538.099C1668.96 537.664 1670.84 538.182 1672.15 539.464C1673.46 540.749 1674.02 542.617 1673.62 544.409C1673.17 546.419 1671.6 547.991 1669.59 548.441C1667.97 548.804 1666.26 548.384 1664.99 547.302C1663.72 546.222 1663.03 544.606 1663.13 542.941C1663.27 540.614 1664.91 538.649 1667.18 538.099ZM1822.8 538.688C1828.25 538.904 1828.66 543.006 1824.11 546.066C1823.98 546.104 1823.4 546.146 1823.22 546.161C1819.13 544.611 1818.51 540.871 1822.8 538.688ZM1765.2 514.714C1772.78 513.287 1780.78 527.281 1767.33 532.669C1765.76 532.806 1765.22 532.476 1763.84 531.974C1757.17 529.536 1755.5 520.619 1761.59 516.509C1762.81 515.689 1763.88 515.256 1765.2 514.714ZM1746.2 515.227C1747.35 515.157 1749.81 515.891 1750.79 516.576C1753.72 518.616 1754.24 520.919 1754.9 524.074C1754.64 524.814 1754.35 525.541 1754.02 526.251C1752.6 529.263 1750.82 530.599 1747.77 531.677C1740.53 531.804 1738.32 525.319 1739.87 519.186C1742.1 516.747 1743.02 516.101 1746.2 515.227ZM1726.09 516.311C1729.96 515.549 1733.71 518.062 1734.48 521.927C1735.24 525.789 1732.74 529.546 1728.88 530.321C1725 531.099 1721.24 528.584 1720.47 524.712C1719.7 520.837 1722.22 517.074 1726.09 516.311ZM1688.22 517.231C1688.44 517.276 1688.65 517.329 1688.85 517.384C1692.51 518.354 1695.33 520.936 1694.13 525.148C1693.35 527.878 1691.05 529.119 1688.67 530.339C1685.06 529.064 1683.94 528.536 1681.93 525.209C1681.95 520.329 1683.51 518.334 1688.22 517.231ZM1707.36 516.951C1711.03 516.444 1714.41 519.024 1714.89 522.696C1715.36 526.366 1712.75 529.721 1709.07 530.161C1705.44 530.596 1702.14 528.026 1701.67 524.401C1701.21 520.779 1703.75 517.454 1707.36 516.951ZM1668.2 517.949C1670.59 518.217 1672.93 519.354 1673.82 521.731C1674.33 523.079 1674.29 524.579 1673.69 525.892C1672.71 528.009 1671.17 528.819 1669.1 529.594C1666.64 529.874 1664.08 527.819 1663.42 525.451C1663 523.954 1663.2 522.351 1663.98 521.004C1664.98 519.239 1666.33 518.489 1668.2 517.949ZM1648.83 519.429C1651.19 519.036 1653.44 520.589 1653.92 522.941C1654.39 525.291 1652.91 527.594 1650.58 528.146C1649 528.519 1647.34 528.001 1646.25 526.794C1645.16 525.586 1644.82 523.882 1645.36 522.347C1645.89 520.814 1647.22 519.694 1648.83 519.429ZM1860.65 520.188C1865.7 522.223 1865.4 524.691 1860.89 527.084C1855.87 525.974 1855.88 522.091 1860.65 520.188ZM1833.07 507.106C1831.17 510.624 1829.74 511.582 1826.55 513.744C1830.03 515.897 1830.92 516.984 1833.37 520.206C1834.98 516.961 1836.51 515.561 1839.48 513.756C1837.3 512.243 1836.03 511.239 1834.41 509.074C1833.9 508.394 1833.62 507.734 1833.07 507.106ZM1785.27 494.214C1791.2 493.756 1793.52 498.976 1794.79 503.709C1793.31 508.969 1791.79 510.396 1786.79 512.464C1785.13 512.546 1783.42 511.974 1781.95 511.214C1779.86 510.114 1778.3 508.212 1777.64 505.944C1776.98 503.629 1777.27 501.147 1778.45 499.047C1780.04 496.199 1782.31 495.091 1785.27 494.214ZM1765.31 494.991C1772.84 494.494 1777.01 503.461 1772.01 509.004C1770.54 510.626 1768.86 511.256 1766.91 512.134C1763.41 511.939 1759.6 509.014 1758.56 505.619C1757.92 503.567 1758.13 501.344 1759.15 499.449C1760.48 496.962 1762.68 495.749 1765.31 494.991ZM1746.42 495.744C1749.72 496.077 1752.4 497.294 1753.6 500.621C1754.28 502.466 1754.19 504.509 1753.34 506.286C1751.99 509.071 1749.75 510.104 1747.03 511.036C1746.08 511.179 1743.68 510.262 1742.85 509.734C1741.19 508.669 1740.09 506.841 1739.7 504.929C1739.27 502.851 1739.71 500.689 1740.92 498.946C1742.37 496.864 1744.04 496.199 1746.42 495.744ZM1727.35 496.201C1734.73 496.811 1737.51 507.099 1727.96 510.356C1719.68 509.346 1716.86 499.486 1727.35 496.201ZM1701.97 501.919C1704.06 496.669 1711.8 495.479 1714 501.124C1715.02 502.381 1715.15 503.927 1714.63 505.454C1712.8 511.094 1704.75 511.958 1702.06 506.001C1701.48 504.709 1701.44 503.234 1701.97 501.919ZM1688.28 497.031C1694.27 497.821 1696.58 504.986 1691.59 508.691C1690.77 509.301 1689.52 509.696 1688.54 510.041C1679.47 508.223 1680.9 498.844 1688.28 497.031ZM1668.7 498.739C1672.11 498.769 1673.57 501.454 1674.27 504.392C1674.23 504.504 1674.2 504.614 1674.16 504.724C1673.2 507.618 1671.78 508.164 1669.16 509.446C1666.6 509.026 1663.97 507.724 1663.44 504.934C1663.21 503.684 1663.5 502.391 1664.23 501.353C1665.31 499.809 1666.91 499.079 1668.7 498.739ZM1649.41 499.967C1654.75 500.857 1655.21 506.112 1649.76 508.409C1644.17 507.009 1643.36 501.802 1649.41 499.967ZM1833.02 488.103C1830.68 491.141 1830.1 492.304 1826.39 494.179C1829.74 496.136 1830.43 496.893 1832.81 500.091L1833.31 500.177C1835.25 497.124 1835.34 496.259 1838.95 494.241C1836.96 492.859 1835.66 491.749 1834.21 489.784C1833.93 489.402 1833.27 488.361 1833.02 488.103ZM1851.32 489.291C1850.22 491.381 1848.36 492.876 1846.53 494.336C1847.28 494.781 1848.15 495.294 1848.79 495.871C1850.06 497.006 1850.85 498.589 1852.43 499.299C1853.66 497.049 1854.95 495.759 1857.1 494.396C1855.61 493.244 1852.22 489.383 1851.32 489.291ZM1707.95 477.456C1714.19 476.829 1719.72 486.957 1709.52 491.249C1704.44 491.674 1702.46 487.904 1701.74 483.576C1701.91 483.179 1702.09 482.786 1702.28 482.396C1703.56 479.774 1705.24 478.364 1707.95 477.456ZM1687.7 477.704C1694.27 477.169 1698.25 486.547 1689.1 490.859C1687.75 490.854 1686.5 490.551 1685.32 489.876C1683.85 489.046 1682.78 487.654 1682.36 486.019C1681.38 482.184 1683.98 478.654 1687.7 477.704ZM1667.18 478.981C1669.48 478.706 1672.04 479.274 1673.27 481.331C1675.68 485.346 1673.13 487.872 1670.07 489.811C1667.66 491.306 1664.75 488.466 1663.51 486.631C1663.36 482.371 1663.41 481.234 1667.18 478.981ZM1648.72 480.469C1649.97 480.409 1652.29 481.276 1652.85 482.438C1654.39 485.603 1652.44 487.416 1650.17 488.911C1646.65 489.931 1642.07 482.431 1648.72 480.469ZM1785.3 480.876C1787.84 480.741 1790.21 482.406 1789.72 485.139C1789.4 486.929 1788.39 487.444 1787.04 488.429C1783.45 489.708 1780.61 484.516 1785.3 480.876ZM1832.64 468.249C1830.77 471.381 1829.59 472.506 1826.52 474.416C1828.16 475.449 1832.81 478.854 1833.01 480.679C1834.82 477.716 1835.92 476.148 1839.02 474.438C1836.22 472.801 1833.28 468.556 1832.64 468.249ZM1870.3 470.086C1868.64 472.316 1867.73 473.046 1865.43 474.626C1867.27 476.301 1868.83 478.241 1870.51 480.144C1870.73 480.146 1870.92 480.148 1871.08 480.148L1871.48 479.776C1873.42 477.281 1874.01 476.477 1877.01 475.329C1875.24 474.292 1873.83 473.301 1872.35 471.871C1871.86 471.396 1870.87 470.303 1870.3 470.086ZM1851.14 469.574C1849.72 471.794 1848.54 472.909 1846.31 474.344C1848.92 476.226 1850.74 478.534 1852.22 479.599C1853.6 477.384 1854.47 476.301 1856.78 474.887C1855.56 474.009 1851.32 469.659 1851.14 469.574ZM1688.49 458.201C1688.86 458.309 1689.23 458.424 1689.6 458.544C1691.51 459.159 1693.19 460.164 1694.11 462.017C1694.78 463.364 1694.87 464.927 1694.38 466.347C1693.42 469.081 1691.06 470.269 1688.65 471.411C1684.96 470.756 1682.88 468.504 1681.85 465.044C1682.88 460.779 1684.39 459.419 1688.49 458.201ZM1707.23 458.228C1710.81 457.539 1714.27 459.864 1714.99 463.434C1715.7 467.006 1713.4 470.486 1709.83 471.227C1707.81 471.647 1705.71 471.099 1704.14 469.744C1702.58 468.392 1701.74 466.386 1701.87 464.321C1702.06 461.306 1704.26 458.801 1707.23 458.228ZM1668.58 459.214C1670.37 459.434 1673.18 460.789 1673.85 462.536C1675.53 466.953 1672.66 468.881 1669.32 470.441C1666.75 470.234 1663.98 468.554 1663.31 465.924C1662.98 464.636 1663.18 463.269 1663.87 462.132C1665.03 460.209 1666.54 459.699 1668.58 459.214ZM1649.47 460.206C1655.21 461.466 1655.16 467.131 1649.66 469.491C1643.64 467.641 1643.32 461.983 1649.47 460.206ZM1804.77 461.599C1808.63 461.911 1808.41 465.731 1805.51 467.871C1801.85 467.421 1801.68 463.771 1804.77 461.599ZM1832.81 449.317C1831.2 451.962 1829.16 453.64 1826.62 455.407C1829.39 457.441 1830.54 458.117 1832.67 460.762C1832.85 460.702 1833.2 460.554 1833.3 460.406C1834.71 458.236 1835.99 456.797 1838.17 455.335C1837.09 454.38 1832.88 449.37 1832.81 449.317ZM1851.39 450.544C1850.01 452.455 1848.49 453.815 1846.57 455.173C1848.33 456.65 1849.75 458.024 1851.1 459.901L1851.65 460.071C1853.3 458.046 1854.28 456.918 1856.48 455.435C1855.36 454.615 1851.71 450.679 1851.39 450.544ZM1870.8 449.521C1869.32 452.046 1868.49 453.43 1866.03 455.201C1867.43 456.608 1868.94 458.414 1870.24 459.644C1870.86 459.644 1870.67 459.641 1871.28 459.108C1873.16 456.999 1874.37 455.932 1877 454.653C1875.7 453.795 1871.13 449.657 1870.8 449.521ZM1707.86 438.929C1710.52 438.887 1713.73 441.195 1714.6 443.769C1715.12 445.311 1714.98 447.001 1714.2 448.433C1713.04 450.623 1711.09 451.759 1708.79 452.44C1701.79 452.182 1698.2 442.512 1707.86 438.929ZM1688.06 439.647C1691.4 439.412 1694.32 441.872 1694.66 445.202C1695 448.532 1692.63 451.526 1689.31 451.964C1687.07 452.259 1684.85 451.312 1683.51 449.494C1682.18 447.676 1681.93 445.274 1682.88 443.226C1683.83 441.177 1685.81 439.806 1688.06 439.647ZM1667.18 440.507C1672 439.569 1676.6 444.655 1673.29 449.033C1672.49 450.085 1671.35 450.643 1670.21 451.286C1667.53 451.679 1664.7 450.219 1663.65 447.668C1663.11 446.37 1663.11 444.908 1663.65 443.612C1664.35 441.984 1665.61 441.154 1667.18 440.507ZM1648.89 441.209C1650.29 441.005 1651.16 441.592 1652.39 442.216C1654.99 446.02 1653.88 448.11 1650.07 450.058C1644.76 449.57 1642.99 443.439 1648.89 441.209ZM1785.73 442.09C1786.35 442.053 1788.13 443.04 1788.51 443.527C1790.25 445.782 1788.24 447.277 1786.99 448.349C1785.25 448.686 1783.28 447.686 1783.45 445.596C1783.61 443.696 1784.39 443.289 1785.73 442.09ZM1814.1 429.809C1811.72 433.56 1810.68 434.588 1806.52 436.537C1809.63 438.109 1811.58 439.578 1813.45 442.675L1814.34 443.093C1815.96 441.622 1815.28 438.981 1820.3 436.371C1818.38 434.96 1817.1 433.834 1815.65 431.914C1815.33 431.488 1814.35 429.967 1814.1 429.809ZM1832.95 430.64C1831.01 433.348 1830.06 434.45 1827.22 436.344C1829.31 437.802 1831.64 439.657 1833.24 441.669C1834.45 438.986 1835.91 437.545 1838.43 436.086C1834.21 433.077 1835.72 433.711 1832.95 430.64ZM1851.44 431.322C1849.66 433.804 1849.06 434.354 1846.55 436.058C1847.55 436.762 1848.38 437.376 1849.34 438.131C1850.05 438.699 1851.31 440.327 1851.78 440.485C1853.86 438.945 1854.06 437.861 1856.87 436.123C1855.45 435.13 1852.04 431.469 1851.44 431.322ZM1765.62 418.234C1766.32 418.125 1766.94 418.377 1767.59 418.585C1771.75 419.905 1773.53 423.475 1774.78 427.281C1773.56 432.064 1771.43 434.197 1766.76 435.672C1756.21 434.443 1754.11 422.597 1765.62 418.234ZM1746.18 418.948C1751.08 418.959 1753.37 423.011 1754.37 427.175C1752.97 432.03 1751.66 432.87 1747.18 434.846C1739.82 435.224 1733.87 423.686 1746.18 418.948ZM1726.91 419.186C1727.35 419.215 1727.78 419.3 1728.21 419.436C1730.87 420.312 1733.09 421.872 1733.87 424.657C1735.26 429.666 1732.46 432.357 1728.4 434.271C1725.25 434.779 1722.28 432.986 1721.06 430.063C1720.26 428.166 1720.25 426.025 1721.04 424.121C1722.24 421.27 1724.24 420.253 1726.91 419.186ZM1707.26 419.939C1713.5 419.074 1720.19 428.486 1709.31 433.677C1705.72 434.514 1702.63 430.515 1701.45 427.571C1702.18 422.707 1703.02 422.226 1707.26 419.939ZM1687.38 420.439C1693.27 419.632 1699.4 428.238 1689.44 433.404C1688.94 433.454 1688.44 433.447 1687.95 433.384C1683.89 432.861 1681.42 429.102 1682.04 425.123C1683.63 422.705 1684.67 421.496 1687.38 420.439ZM1668.01 421.181C1671.01 420.792 1673.76 422.883 1674.18 425.872C1674.6 428.861 1672.55 431.635 1669.56 432.096C1667.6 432.398 1665.63 431.623 1664.4 430.065C1663.17 428.508 1662.87 426.409 1663.62 424.57C1664.36 422.732 1666.04 421.436 1668.01 421.181ZM1649.02 422.191C1653.83 422.042 1656.19 428.039 1650.05 431.134C1646.36 431.793 1641.85 424.699 1649.02 422.191ZM1814.06 410.125C1812.37 413.907 1809.85 415.727 1806.11 417.32C1810.07 419.326 1811.21 420.143 1813.83 423.829L1814.44 423.775C1816.23 420.19 1817.16 419.086 1821.02 417.337C1818.4 415.778 1817.14 414.811 1815.34 412.261C1815.09 411.904 1814.16 410.255 1814.06 410.125ZM1833.11 411.073C1831.53 413.804 1830.25 415.39 1827.54 417.206C1829.46 418.597 1831.86 420.53 1833.11 422.581L1833.41 422.564C1834.5 419.498 1836.38 418.225 1839.19 416.784C1834.99 413.978 1835.91 413.819 1833.11 411.073ZM1766.07 398.627C1770.7 399.283 1773.41 404.232 1774.85 408.152C1772.87 413.344 1771.61 413.993 1766.84 416.639C1761.37 415.728 1759 413.018 1757.54 407.884C1757.67 407.403 1757.81 406.928 1757.98 406.461C1759.54 402.199 1762.13 400.436 1766.07 398.627ZM1746.31 399.71C1751.59 399.415 1755.76 406.048 1753.56 410.819C1752.17 413.828 1750.39 414.559 1747.54 415.727C1743.71 415.807 1740.1 412.993 1739.44 409.216C1739.07 407.109 1739.39 406.06 1739.84 404.028C1742.03 401.605 1743.05 400.564 1746.31 399.71ZM1727.18 400.187C1731.81 400.296 1733.79 404.274 1734.77 408.109C1733.21 412.358 1732.06 413.876 1727.78 415.183C1726.98 414.974 1725.72 414.656 1724.98 414.337C1723.11 413.505 1721.63 411.972 1720.87 410.065C1720.21 408.445 1720.26 406.628 1720.98 405.039C1722.26 402.253 1724.53 401.181 1727.18 400.187ZM1708.04 401.223C1711.65 400.95 1714.82 403.631 1715.14 407.243C1715.47 410.855 1712.83 414.059 1709.23 414.436C1706.85 414.685 1704.52 413.633 1703.13 411.683C1701.74 409.733 1701.51 407.187 1702.53 405.02C1703.55 402.854 1705.65 401.403 1708.04 401.223ZM1687.69 401.427C1694.4 400.972 1698.77 410.332 1689.27 414.36C1685.38 414.493 1683.1 411.57 1681.53 408.432C1682.65 404.751 1684.01 402.769 1687.69 401.427ZM1668.56 402.45C1671.51 402.277 1674.08 404.479 1674.35 407.43C1674.63 410.38 1672.52 413.018 1669.58 413.396C1667.58 413.653 1665.61 412.8 1664.43 411.174C1663.25 409.547 1663.05 407.405 1663.91 405.588C1664.77 403.771 1666.55 402.568 1668.56 402.45ZM1649.2 403.773C1654.98 404.313 1655.88 409.498 1650.25 412.315C1644.37 412.027 1643.2 405.108 1649.2 403.773ZM1794.84 390.117C1792.57 394.844 1791.95 395.574 1787.38 398.398C1792.14 400.946 1792.26 401.797 1794.95 406.541C1796 405.862 1796.76 401.296 1802.08 398.393C1798.65 396.529 1797.6 395.269 1795.78 391.797C1795.54 391.33 1795.19 390.395 1794.84 390.117ZM1814.06 391.627C1813.37 392.812 1812.85 393.701 1812.06 394.821C1811.22 396.001 1808.78 397.504 1808.49 398.532C1808.81 399.706 1811.09 401.321 1811.95 402.335C1812.74 403.269 1813.4 404.305 1814.25 405.168C1816.15 401.78 1816.72 400.281 1820.22 398.37C1816.97 396.322 1815.93 395.146 1814.06 391.627ZM1765.24 380.728C1771.01 379.899 1773.46 385.212 1774.81 389.738C1774.76 389.881 1774.71 390.024 1774.66 390.167C1773.06 394.587 1771.39 395.753 1767.31 397.675L1766.46 397.932C1755.78 395.936 1755.28 382.782 1765.24 380.728ZM1745.67 381.204C1748.79 380.878 1752.06 382.621 1753.36 385.518C1754.22 387.398 1754.29 389.547 1753.55 391.48C1752.44 394.317 1750.46 395.641 1747.83 396.771C1746.64 396.881 1746.57 396.703 1745.48 396.424C1739.37 394.856 1737.34 387.064 1742.25 382.958C1743.23 382.134 1744.45 381.701 1745.67 381.204ZM1707.71 382.176C1708.68 382.048 1709.21 382.282 1710.11 382.561C1713.63 383.657 1714.66 386.678 1715.49 389.835C1713.9 393.603 1712.94 394.164 1709.35 395.869C1708 396.081 1708.15 395.969 1706.87 395.652C1702.08 394.468 1700.23 388.828 1703.58 385.135C1704.99 383.592 1705.9 383.078 1707.71 382.176ZM1687.24 382.493C1688.37 382.407 1689.5 382.601 1690.54 383.057C1696.66 385.801 1696.08 393.277 1689.27 395.648C1687.41 396.291 1684.64 394.77 1683.66 393.084C1682.04 390.284 1682.23 389.173 1682.83 386.237C1684.35 384.323 1684.99 383.437 1687.24 382.493ZM1726.9 381.905C1730.62 381.641 1733.86 384.412 1734.18 388.129C1734.5 391.845 1731.78 395.131 1728.07 395.506C1725.62 395.754 1723.22 394.661 1721.8 392.648C1720.39 390.636 1720.16 388.015 1721.22 385.789C1722.27 383.564 1724.44 382.08 1726.9 381.905ZM1668.11 383.217C1669.91 383.064 1672.72 384.166 1673.53 385.805C1675.77 390.37 1673 392.956 1669.55 395.004C1663.04 395.16 1660.1 386.812 1668.11 383.217ZM1648.18 385C1654.03 384.39 1656.32 389.576 1650.96 393.341C1646.49 394.944 1642.2 388.527 1648.18 385ZM1840.9 386.767C1842.11 386.332 1843.47 386.596 1844.43 387.452C1845.39 388.308 1845.8 389.621 1845.51 390.874C1845.22 392.127 1844.26 393.12 1843.02 393.461C1841.2 393.961 1839.31 392.933 1838.74 391.133C1838.17 389.332 1839.13 387.404 1840.9 386.767ZM1813.96 373.072C1811.89 376.838 1810.58 378.628 1806.44 380.104C1810.39 382.552 1811.22 382.9 1813.44 386.953L1814.14 387.289C1814.63 386.656 1814.94 385.851 1815.3 385.11C1816.42 382.807 1817.88 381.563 1820.04 380.263C1817.21 377.991 1815.44 376.551 1813.96 373.072ZM1785.14 365.665C1788.57 365.242 1791.11 367.979 1792.98 370.472C1793.06 374.442 1791.79 376.754 1788.13 378.512C1782.13 381.433 1775.5 370.045 1785.14 365.665ZM1707.99 363.137C1709.01 363.045 1709.41 363.4 1710.32 363.688C1716.5 365.665 1717.51 374.089 1711.42 376.889C1710.83 377.16 1710.18 377.414 1709.55 377.663C1705.11 378.59 1700.63 373.41 1702.08 369.071C1703.17 365.837 1705.23 364.634 1707.99 363.137ZM1687.8 363.936C1693.58 363.681 1697.39 370.626 1693.04 374.936C1691.76 376.202 1690.69 376.625 1689.1 377.413C1682.03 377.23 1678.7 367.584 1687.8 363.936ZM1667.13 365.245C1669.56 364.904 1672.35 365.614 1673.73 367.801C1674.46 368.972 1674.68 370.384 1674.37 371.725C1673.78 374.174 1672.07 375.154 1670.13 376.374C1663.91 377.211 1659.71 368.415 1667.13 365.245ZM1859.66 362.183C1863.96 363.084 1867.61 367.166 1865.77 371.642C1864.74 374.15 1862.51 374.99 1860.21 375.878C1855.84 375.198 1854.44 373.41 1853.19 369.4C1853.24 369.24 1853.29 369.081 1853.34 368.924C1854.56 365.406 1856.44 363.748 1859.66 362.183ZM1648.75 366.181C1652.71 365.423 1656.97 371.204 1650.42 374.821C1648.58 375.465 1646.32 373.965 1645.63 372.193C1645.2 371.035 1645.23 369.752 1645.72 368.617C1646.36 367.187 1647.38 366.705 1648.75 366.181ZM1814.1 338.407C1812.3 340.818 1811.02 342.545 1808.53 344.285C1816.35 351.078 1814.83 356.772 1806.18 361.619C1809.38 363.306 1810.33 363.966 1812.39 367.067C1812.79 367.674 1813.39 368.655 1813.96 369.07C1815.6 367.984 1814.77 364.392 1820.46 361.606C1812.08 355.756 1812.34 351.01 1820.32 344.888C1817.8 343.638 1816.5 342.738 1815.04 340.174C1814.87 339.87 1814.24 338.594 1814.1 338.407ZM1832.29 356.046C1830.98 358.193 1829.14 359.756 1827.12 361.229C1829.55 363.364 1830.72 364.194 1832.74 366.848C1834.05 366.017 1835.18 363.286 1837.58 361.687C1836.52 360.815 1832.34 356.07 1832.29 356.046ZM1687.24 348.467C1689.47 348.287 1692.23 349.147 1693.42 351.175C1694.1 352.311 1694.29 353.671 1693.95 354.947C1693.27 357.413 1691.33 358.402 1689.3 359.553C1685.63 360.428 1678.2 352.356 1687.24 348.467ZM1708.15 348.411C1710.25 348.346 1713.48 349.832 1714.46 351.806C1716.24 355.38 1712.62 357.966 1709.84 359.35C1704.62 360.349 1698.53 352.813 1708.15 348.411ZM1668.34 348.953C1675.07 349.459 1676.57 356.045 1669.27 358.813C1662.52 358.128 1661.24 351.759 1668.34 348.953ZM1649.39 350.157C1653.59 350.109 1655.72 355.519 1649.52 357.726C1643.79 356.121 1644.79 352.523 1649.39 350.157ZM1850.88 342.617C1849.51 344.049 1848.2 345.399 1846.76 346.764C1849.19 348.786 1849.58 349.492 1850.83 352.543L1851.59 352.184C1853.12 350.626 1854.73 349.094 1856.6 347.933C1853.86 346.17 1852.66 345.45 1850.88 342.617ZM1831.85 341.065C1830.62 342.582 1828.86 343.588 1827.25 344.757C1828.08 345.75 1832.52 351.489 1833.05 351.858C1834.25 350.09 1835.68 347.788 1837.32 346.453C1836.32 345.68 1835.74 345.175 1834.83 344.334C1834.01 343.585 1832.46 341.306 1831.85 341.065ZM1707.34 331.966C1711.89 331.657 1714.34 334.564 1715.98 338.358C1714.57 341.623 1713.25 342.52 1710.32 344.261C1706.02 345.874 1703.03 341.794 1701.81 338.22C1702.92 335.28 1704.5 333.353 1707.34 331.966ZM1687.45 331.984C1694.4 331.571 1698.28 340.828 1689.03 343.549C1686.01 344.038 1683.73 341.594 1682.2 339.391C1682.68 335.524 1683.72 333.57 1687.45 331.984ZM1667.46 332.739C1669.73 332.515 1672.11 333.245 1673.29 335.33C1673.91 336.439 1674.07 337.748 1673.74 338.974C1673.08 341.28 1671.5 341.974 1669.57 343.001C1667.72 343.523 1664.93 341.909 1664.03 340.107C1663.45 338.947 1663.36 337.598 1663.79 336.371C1664.41 334.534 1665.77 333.539 1667.46 332.739ZM1649.01 334.185C1651.43 333.917 1653.04 336.305 1653.83 338.235C1652.95 340.636 1652.37 341.391 1650.19 342.654C1648.86 342.813 1648.25 342.401 1647.01 341.871C1644.24 338.216 1644.84 335.953 1649.01 334.185ZM1814 321.722C1812.43 324.763 1810.96 327.151 1807.76 328.818C1810.6 330.704 1813.19 332.666 1814.01 336.272C1815.46 332.573 1816.25 331.071 1819.82 328.984C1817.06 326.883 1815.46 325.545 1814.21 322.071C1814.12 321.821 1814.17 321.919 1814 321.722ZM1832.57 323.315C1831.17 325.371 1829.5 327.231 1827.61 328.845C1830.82 331.153 1831.44 333.805 1832.35 334.531C1833.9 333.21 1835.11 330.93 1837.56 328.773C1835.19 326.977 1833.05 323.655 1832.57 323.315ZM1766.1 310.895C1766.87 310.895 1768.43 311.549 1769.19 311.877C1771.43 312.832 1773.19 314.662 1774.05 316.941C1776.34 322.928 1772.05 326.802 1766.92 328.774C1757.71 329.057 1752.91 315.127 1766.1 310.895ZM1745.75 311.959C1751.37 311.761 1753.15 315.204 1754.81 319.839C1754.73 320.15 1754.64 320.459 1754.53 320.765C1753.2 324.748 1751.31 325.957 1747.82 327.713C1747.76 327.741 1747.71 327.77 1747.65 327.798C1746.78 328.327 1745.45 327.915 1744.56 327.574C1740.55 326.035 1738.37 320.773 1739.98 316.826C1741.06 314.175 1743.3 312.991 1745.75 311.959ZM1726.52 312.713C1731.61 312.115 1733.86 315.879 1734.69 320.35C1733.42 324.251 1732.17 325.26 1728.68 327.222C1721.45 329.21 1715.88 315.352 1726.52 312.713ZM1707.46 312.711C1710.24 312.371 1713.52 314.209 1714.69 316.793C1715.43 318.388 1715.5 320.212 1714.9 321.862C1713.88 324.556 1711.92 325.581 1709.5 326.662C1703.49 328.457 1696.91 316.99 1707.46 312.711ZM1687.41 313.191C1689.46 312.884 1692.68 314.448 1693.72 316.293C1696.43 321.134 1692.98 324.066 1689.19 326.348C1686.12 326.694 1683.32 323.604 1681.94 321.186C1681.74 316.761 1683.56 315.039 1687.41 313.191ZM1668.23 314.013C1672.99 314.516 1676.25 318.853 1672.86 323.101C1671.92 324.281 1670.42 324.895 1669.07 325.516C1666.3 325.109 1663.77 323.407 1663.22 320.532C1662.95 319.134 1663.26 317.687 1664.06 316.514C1665.1 315.027 1666.49 314.294 1668.23 314.013ZM1859.39 314.191C1860.89 314.049 1863.06 314.887 1863.81 316.164C1866.1 320.072 1863.24 322.659 1860.49 324.515C1857.63 324.368 1854.44 321.174 1855.43 318.183C1856.1 316.14 1857.6 315.145 1859.39 314.191ZM1648.79 315.33C1651.22 314.915 1653.54 316.546 1653.96 318.979C1654.38 321.412 1652.76 323.73 1650.33 324.161C1647.88 324.594 1645.55 322.961 1645.13 320.517C1644.7 318.072 1646.34 315.748 1648.79 315.33ZM1813.91 304.036C1811.91 307.193 1811.07 308.45 1807.81 310.474C1811.62 312.85 1812.04 313.177 1814.13 317.138C1815.44 313.891 1816.56 312.164 1819.9 310.63C1818.64 309.776 1818.56 309.666 1817.55 308.716C1816.65 307.864 1814.48 304.298 1813.91 304.036ZM1765.88 291.747C1766.63 291.479 1768.11 291.956 1768.83 292.248C1773.25 294.09 1776.18 299.516 1774.08 304.107C1772.45 307.668 1770.01 309.018 1766.58 310.421L1766.32 310.546C1759.63 308.074 1754.42 302.42 1759.78 294.993C1760.95 293.373 1763.88 292.042 1765.88 291.747ZM1746.38 292.471C1754.32 292.285 1759.32 305.044 1747.53 308.938C1740.2 310.146 1733.45 295.947 1746.38 292.471ZM1727.41 292.977C1732.41 293.282 1736.21 298.563 1734.08 303.295C1732.87 305.996 1730.82 307.518 1728.14 308.562C1726.79 308.435 1725.82 308.099 1724.63 307.421C1722.71 306.317 1721.31 304.489 1720.75 302.347C1720.25 300.494 1720.51 298.517 1721.47 296.857C1722.83 294.548 1724.92 293.591 1727.41 292.977ZM1706.61 293.999C1715.08 292.916 1719.13 302.926 1709.77 307.797C1706.05 309.17 1702.85 304.868 1701.45 301.988C1701.69 297.774 1702.6 295.896 1706.61 293.999ZM1686.93 294.451C1689.18 293.946 1691.53 294.693 1693.07 296.407C1694.62 298.122 1695.12 300.536 1694.38 302.724C1693.64 304.911 1691.78 306.531 1689.52 306.962C1687.84 307.281 1686.11 306.915 1684.7 305.947C1683.3 304.979 1682.34 303.489 1682.04 301.809C1681.43 298.443 1683.59 295.2 1686.93 294.451ZM1667.65 295.156C1669.36 294.797 1671.14 295.249 1672.47 296.378C1673.81 297.507 1674.55 299.188 1674.47 300.934C1674.37 303.508 1672.54 305.687 1670.02 306.234C1666.95 306.901 1663.93 304.951 1663.28 301.884C1662.62 298.817 1664.58 295.8 1667.65 295.156ZM1841 295.978C1842.78 295.845 1845.06 296.415 1845.99 297.973C1848.08 301.456 1845.67 303.95 1843.16 305.742C1839.41 306.535 1834.05 299.8 1841 295.978ZM1648.75 295.938C1650.36 295.907 1652.58 296.616 1653.36 298.042C1655.31 301.626 1652.88 303.793 1650.39 305.438C1645.58 305.748 1642.14 298.979 1648.75 295.938ZM1765.64 273.246C1773.91 272.083 1779.77 287.161 1766.64 291.116C1765.96 291.289 1762.75 289.819 1762.17 289.413C1754.72 284.175 1756.84 274.97 1765.64 273.246ZM1745.8 273.775C1751.56 273.207 1753.54 277.346 1754.77 282.056C1753.41 286.207 1752.11 288.093 1747.77 289.423C1746.67 289.762 1746.01 289.589 1744.95 289.268C1737.25 286.928 1737.5 275.258 1745.8 273.775ZM1727.3 274.208C1727.95 274.242 1729.23 274.6 1729.83 274.822C1731.55 275.455 1732.95 276.757 1733.69 278.433C1734.91 281.109 1734.52 284.113 1732.55 286.29C1731.25 287.727 1730.11 288.102 1728.38 288.854C1723.44 288.698 1722.07 286.264 1720.5 282.165C1721.33 277.149 1722.42 275.685 1727.3 274.208ZM1707.28 274.958C1715.05 274.726 1718.47 284.389 1708.77 288.055C1707.98 288.278 1707.44 288.119 1706.69 287.881C1703.44 286.855 1702.47 284.244 1701.62 281.351C1702.84 277.676 1703.51 276.453 1707.28 274.958ZM1687.06 275.838C1690.2 275.212 1693.26 277.215 1693.95 280.342C1694.63 283.468 1692.69 286.568 1689.57 287.312C1687.51 287.807 1685.33 287.146 1683.89 285.585C1682.45 284.023 1681.96 281.804 1682.62 279.783C1683.28 277.762 1684.97 276.253 1687.06 275.838ZM1667.68 277.186C1669.84 276.994 1672.03 278.333 1672.84 280.355C1673.3 281.459 1673.27 282.701 1672.76 283.782C1672.11 285.207 1670.86 285.9 1669.48 286.442C1667.17 286.471 1665.05 285.871 1664.08 283.534C1663.62 282.472 1663.62 281.27 1664.08 280.209C1664.79 278.522 1666.07 277.828 1667.68 277.186Z" fill="#141414"/>
</svg>
